<?xml version="1.0" standalone="no"?>
<!DOCTYPE svg PUBLIC "-//W3C//DTD SVG 20010904//EN"
 "http://www.w3.org/TR/2001/REC-SVG-20010904/DTD/svg10.dtd">
<svg version="1.0" xmlns="http://www.w3.org/2000/svg"
 width="112.000000pt" height="112.000000pt" viewBox="0 0 112.000000 112.000000"
 preserveAspectRatio="xMidYMid meet">
<metadata>
Created by potrace 1.14, written by Peter Selinger 2001-2017
</metadata>
<g transform="translate(0.000000,112.000000) scale(0.100000,-0.100000)"
fill="#000000" stroke="none">
<path d="M345 1070 c-29 -6 -28 -7 15 -14 24 -5 61 -19 82 -32 21 -13 42 -24
48 -24 5 0 9 -3 8 -7 -4 -17 26 -63 41 -63 13 0 14 -2 2 -9 -8 -5 -11 -16 -8
-24 4 -12 -8 -9 -46 11 -42 22 -65 27 -122 26 -79 0 -129 -19 -210 -79 l-50
-37 35 7 c19 4 45 13 58 21 12 8 22 10 22 5 0 -11 81 -8 99 3 5 3 11 1 13 -6
2 -6 23 -12 45 -12 28 -1 39 -5 36 -13 -3 -7 1 -13 7 -13 7 0 -15 -18 -49 -40
-228 -147 -336 -423 -240 -612 25 -48 33 -49 13 -2 -35 84 -12 218 56 323 66
103 182 199 274 226 63 19 61 19 74 -10 7 -16 20 -25 34 -26 19 0 20 -2 8 -11
-24 -16 -3 -118 25 -119 17 -1 17 -2 3 -6 -10 -2 -18 -8 -19 -11 0 -4 -2 -41
-4 -82 -2 -41 -11 -100 -19 -130 -9 -30 -13 -56 -11 -58 13 -13 108 129 130
193 23 70 21 171 -5 241 -13 34 -11 36 28 25 21 -7 32 -6 36 2 3 8 5 8 5 -1 1
-7 16 -28 35 -46 26 -27 36 -32 46 -23 10 9 11 9 5 -1 -7 -14 22 -92 35 -92 4
0 7 -6 7 -12 -1 -7 5 -40 13 -73 l14 -60 8 40 c12 63 6 146 -14 196 -24 56
-84 121 -139 149 l-41 21 22 24 c14 15 19 28 14 37 -6 10 -5 11 7 1 13 -10 24
-9 57 4 25 9 39 20 35 27 -5 7 -2 7 8 -1 8 -6 34 -12 59 -14 25 -1 68 -14 95
-27 l50 -24 -28 30 c-96 102 -264 120 -378 41 l-25 -18 -13 35 c-17 48 -56 91
-105 116 -45 23 -135 37 -181 28z"/>
<path d="M420 642 c-68 -33 -165 -130 -204 -201 -54 -101 -67 -211 -32 -292
20 -47 81 -102 139 -124 82 -31 216 -7 292 53 l24 19 -68 -5 c-183 -13 -295
83 -294 252 1 121 62 226 173 297 57 36 42 37 -30 1z"/>
<path d="M367 543 c-3 -5 -8 -24 -11 -44 -3 -19 -10 -46 -15 -60 -9 -23 -10
-23 -10 -2 -2 44 -18 30 -30 -27 -14 -63 -11 -127 9 -175 11 -27 13 -28 20
-10 7 18 8 17 15 -10 14 -63 26 -72 21 -15 l-5 55 34 -55 c40 -63 44 -62 15 5
-11 26 -20 49 -20 52 0 3 26 -16 58 -43 55 -46 51 -35 -12 34 -17 17 -27 32
-24 32 3 0 31 -11 63 -25 32 -14 59 -24 61 -22 2 1 -21 16 -51 33 -30 16 -55
32 -55 35 0 4 26 5 58 3 l57 -3 -60 16 c-46 13 -55 18 -40 24 11 4 30 8 42 8
12 1 24 5 27 10 3 4 -15 7 -39 5 -25 -2 -45 -2 -45 1 0 3 25 19 55 36 30 17
55 33 55 35 0 2 -26 -8 -57 -21 -31 -14 -60 -24 -64 -23 -5 2 12 24 37 51 56
57 48 61 -14 7 -25 -22 -47 -38 -49 -36 -3 2 3 18 11 35 21 39 37 81 31 81 -2
0 -16 -22 -32 -50 -15 -27 -31 -50 -35 -50 -7 0 -1 81 7 108 5 13 -1 16 -8 5z"/>
<path d="M538 363 c6 -2 18 -2 25 0 6 3 1 5 -13 5 -14 0 -19 -2 -12 -5z"/>
</g>
</svg>
